<?xml version="1.0" standalone="no"?>
<!DOCTYPE svg PUBLIC "-//W3C//DTD SVG 20010904//EN"
 "http://www.w3.org/TR/2001/REC-SVG-20010904/DTD/svg10.dtd">
<svg version="1.0" xmlns="http://www.w3.org/2000/svg"
 width="676.000000pt" height="676.000000pt" viewBox="0 0 676.000000 676.000000"
 preserveAspectRatio="xMidYMid meet">
<metadata>
Created by potrace 1.11, written by Peter Selinger 2001-2013
</metadata>
<g transform="translate(0.000000,676.000000) scale(0.100000,-0.100000)"
fill="#000000" stroke="none">
<path d="M3179 6636 c-2 -2 -39 -6 -81 -10 -115 -10 -150 -15 -293 -42 -463
-87 -916 -283 -1299 -562 -50 -36 -93 -69 -96 -72 -3 -3 -27 -24 -54 -45 -28
-22 -62 -51 -77 -65 -206 -193 -293 -288 -425 -460 -299 -391 -495 -828 -600
-1335 -2 -11 -5 -32 -6 -48 -2 -21 -11 -32 -45 -48 -74 -36 -122 -110 -127
-198 -12 -213 248 -328 399 -176 93 93 93 230 1 332 -32 36 -35 43 -26 72 5
17 9 34 9 36 0 14 25 129 42 195 101 376 270 723 505 1037 107 142 150 191
300 338 397 392 909 668 1454 784 97 21 106 22 220 40 245 38 685 34 900 -9
25 -5 59 -11 75 -14 111 -17 282 -62 427 -112 819 -285 1474 -906 1795 -1704
86 -212 150 -431 170 -581 4 -33 0 -41 -40 -81 -74 -74 -92 -179 -48 -271 41
-85 114 -130 213 -130 75 0 135 27 182 83 89 106 55 289 -67 354 -25 14 -34
26 -35 46 -1 34 -25 150 -52 255 -209 791 -706 1470 -1395 1905 -215 136 -512
272 -760 349 -106 33 -332 87 -400 95 -22 3 -49 8 -60 10 -12 2 -48 7 -80 11
-33 4 -71 9 -85 12 -29 6 -535 15 -541 9z m-2781 -2798 c59 -56 58 -138 -3
-195 -30 -28 -42 -33 -86 -33 -46 0 -55 4 -90 39 -35 35 -39 44 -39 89 0 43 5
57 30 86 51 58 134 64 188 14z m6162 -4 c86 -87 28 -224 -95 -224 -42 0 -52 5
-86 39 -35 35 -39 44 -39 91 0 48 4 56 40 92 39 39 42 40 96 36 44 -4 61 -10
84 -34z"/>
<path d="M3199 6116 c-2 -2 -38 -6 -79 -10 -72 -6 -92 -9 -170 -22 -19 -3 -46
-8 -60 -10 -64 -11 -245 -59 -337 -90 -665 -222 -1222 -702 -1542 -1329 -150
-292 -246 -619 -279 -945 -9 -97 -9 -442 1 -545 7 -76 9 -94 23 -175 13 -74
16 -88 41 -190 234 -963 1000 -1729 1963 -1963 58 -14 116 -28 130 -30 36 -7
90 -16 125 -22 171 -28 561 -28 770 0 164 22 441 97 607 164 836 335 1453
1071 1633 1946 42 206 50 291 50 540 0 181 -7 308 -20 390 -5 30 -13 79 -21
125 -3 14 -16 70 -29 125 -232 965 -1005 1737 -1970 1970 -55 13 -116 27 -135
30 -19 3 -42 8 -50 10 -8 2 -42 7 -75 11 -33 3 -69 8 -80 11 -25 6 -490 15
-496 9z m456 -209 c11 -3 47 -8 80 -12 247 -28 557 -127 804 -256 531 -278
942 -732 1163 -1284 62 -154 124 -376 143 -510 4 -27 9 -59 11 -70 25 -128 24
-541 -1 -680 -3 -16 -12 -68 -21 -115 -83 -466 -331 -936 -677 -1283 -107
-107 -120 -118 -232 -209 -157 -126 -434 -284 -635 -361 -146 -57 -381 -118
-540 -142 -142 -20 -446 -27 -590 -12 -129 14 -152 17 -270 43 -225 48 -441
126 -640 230 -102 54 -335 203 -375 241 -11 10 -33 28 -49 41 -77 59 -208 188
-298 292 -234 270 -427 626 -514 950 -67 245 -89 416 -88 680 0 138 7 268 18
325 2 11 7 43 11 70 32 227 143 547 268 777 395 725 1151 1222 1952 1284 44 4
82 8 83 10 5 4 374 -4 397 -9z"/>
<path d="M3745 5561 c-109 -31 -105 -168 6 -198 24 -6 87 -21 139 -33 120 -28
266 -82 400 -149 376 -187 687 -500 872 -875 142 -289 201 -544 202 -866 1
-248 -23 -404 -95 -624 -188 -577 -641 -1037 -1219 -1240 -41 -14 -86 -28 -99
-31 -13 -2 -38 -9 -55 -14 -17 -5 -66 -17 -109 -26 -92 -20 -117 -44 -117
-110 0 -36 5 -48 32 -70 28 -24 38 -26 87 -22 31 3 65 7 76 10 11 3 41 10 66
16 85 19 213 62 324 109 708 296 1216 976 1303 1741 9 87 9 429 -1 511 -64
522 -327 1022 -718 1365 -211 185 -464 333 -722 420 -147 50 -341 94 -372 86z"/>
<path d="M2889 5536 c-178 -43 -279 -80 -474 -176 -528 -259 -935 -752 -1104
-1335 -11 -38 -22 -81 -25 -95 -3 -14 -12 -60 -20 -103 -25 -125 -31 -200 -31
-397 0 -203 7 -281 40 -455 8 -42 37 -144 66 -233 105 -321 284 -609 531 -851
111 -109 98 -98 209 -183 141 -110 263 -181 452 -267 133 -61 417 -140 502
-141 43 0 94 35 96 68 8 89 -14 111 -137 140 -403 96 -709 259 -977 525 -324
321 -524 733 -575 1187 -9 82 -8 369 1 435 70 476 245 840 556 1154 269 272
594 451 973 536 132 29 158 49 158 116 0 31 -7 47 -29 70 -37 36 -75 37 -212
5z"/>
<path d="M3158 4974 l-3 -146 -90 -32 c-287 -103 -526 -291 -703 -552 -279
-410 -333 -894 -151 -1343 162 -398 484 -709 878 -846 l66 -23 3 -136 3 -136
249 0 250 0 0 115 c0 126 -3 120 67 129 216 27 486 151 683 314 102 85 280
283 280 312 0 4 -78 75 -172 157 -95 81 -182 156 -192 166 -28 24 -33 22 -55
-20 -72 -142 -244 -310 -391 -381 -202 -99 -460 -108 -670 -25 -308 123 -519
405 -575 768 -8 55 -8 219 0 280 37 275 188 533 398 677 51 35 173 98 202 105
6 1 34 9 64 17 374 104 779 -74 972 -427 l26 -48 119 114 c65 63 149 143 187
178 l67 64 -36 45 c-85 107 -260 274 -354 337 -90 61 -202 119 -302 156 -63
24 -223 64 -283 70 l-30 4 -3 126 -3 127 -249 0 -249 0 -3 -146z"/>
<path d="M247 3345 c-130 -34 -202 -173 -157 -305 20 -60 58 -102 116 -130 30
-15 42 -27 42 -43 0 -66 76 -354 142 -537 69 -191 187 -438 281 -585 51 -79
171 -255 184 -269 5 -6 28 -34 49 -61 145 -184 386 -417 571 -553 39 -28 75
-55 80 -60 23 -18 165 -109 230 -147 165 -97 376 -194 568 -261 93 -32 325
-97 387 -108 14 -2 43 -7 65 -12 22 -4 47 -8 55 -9 8 -1 31 -5 50 -8 217 -40
647 -45 910 -11 510 64 1057 285 1480 597 167 123 387 324 500 457 12 14 31
36 43 50 135 157 295 396 400 600 139 269 230 527 303 865 2 11 5 34 6 51 1
24 8 35 34 49 50 27 85 69 104 126 55 162 -65 323 -233 313 -205 -12 -296
-256 -150 -402 52 -52 52 -53 8 -237 -85 -353 -240 -701 -443 -995 -192 -279
-377 -469 -702 -723 -42 -33 -226 -151 -306 -195 -293 -165 -650 -289 -984
-342 -41 -6 -86 -13 -100 -16 -116 -19 -478 -25 -635 -11 -426 37 -821 157
-1190 360 -467 257 -845 620 -1126 1082 -108 176 -201 380 -268 581 -40 119
-85 282 -94 339 -3 17 -10 52 -16 78 -11 47 -11 49 18 73 16 13 39 44 50 68
90 185 -73 384 -272 331z m154 -134 c35 -35 39 -44 39 -91 0 -47 -4 -56 -39
-91 -35 -35 -44 -39 -91 -39 -47 0 -56 4 -91 39 -35 35 -39 44 -39 91 0 47 4
56 39 91 35 35 44 39 91 39 47 0 56 -4 91 -39z m6160 0 c35 -35 39 -44 39 -89
0 -46 -4 -56 -38 -92 -36 -37 -43 -40 -90 -40 -43 0 -57 5 -85 29 -64 57 -66
141 -3 198 31 28 43 33 87 33 46 0 55 -4 90 -39z"/>
</g>
</svg>
